<svg width="540" height="350" viewBox="0 0 540 350" fill="none" xmlns="http://www.w3.org/2000/svg">
<rect opacity="0.5" x="82" y="95" width="151" height="127" rx="5" stroke="url(#paint0_linear_47_3807)" stroke-width="1.52"/>
<rect opacity="0.5" x="320" y="95" width="151" height="127" rx="5" stroke="url(#paint1_linear_47_3807)" stroke-width="1.52"/>
<path d="M182.863 168.987H369.73C371.75 168.987 373.392 170.476 373.392 172.309V284.506H179.205V172.309C179.205 170.476 180.846 168.987 182.867 168.987H182.863Z" fill="#0F0F0F"/>
<path d="M367.286 175.588H185.312V275.705H367.286V175.588Z" fill="white"/>
<path d="M396.597 284.506H156V287.807H396.597V284.506Z" fill="url(#paint2_linear_47_3807)"/>
<path d="M377.83 292.207H179.995C177.728 292.207 175.465 291.969 173.248 291.497L156 287.807H396.597L387.664 290.673C384.492 291.691 381.174 292.207 377.83 292.207Z" fill="url(#paint3_linear_47_3807)"/>
<path d="M300.1 287.807H258.604C256.851 287.807 255.325 286.44 254.926 284.506H303.778C303.374 286.44 301.853 287.807 300.1 287.807Z" fill="url(#paint4_linear_47_3807)"/>
<path d="M178.23 287.807H170.41C169.871 287.807 169.435 287.314 169.435 286.707C169.435 286.099 169.871 285.606 170.41 285.606H178.23C178.768 285.606 179.205 286.099 179.205 286.707C179.205 287.314 178.768 287.807 178.23 287.807Z" fill="url(#paint5_linear_47_3807)"/>
<path opacity="0.56" d="M281.794 172.838C281.794 171.927 280.7 171.188 279.352 171.188C278.003 171.188 276.909 171.927 276.909 172.838C276.909 173.749 278.003 174.488 279.352 174.488C280.7 174.488 281.794 173.749 281.794 172.838Z" fill="url(#paint6_linear_47_3807)"/>
<path opacity="0.56" d="M280.573 172.288C280.573 171.681 280.025 171.188 279.352 171.188C278.678 171.188 278.13 171.681 278.13 172.288C278.13 172.894 278.678 173.388 279.352 173.388C280.025 173.388 280.573 172.894 280.573 172.288Z" fill="url(#paint7_linear_47_3807)"/>
<path d="M280.573 172.838C280.573 172.532 280.024 172.288 279.352 172.288C278.679 172.288 278.13 172.535 278.13 172.838C278.13 173.141 278.679 173.388 279.352 173.388C280.024 173.388 280.573 173.141 280.573 172.838Z" fill="#0F0F0F"/>
<path d="M367.286 175.588H185.312V275.705H367.286V175.588Z" fill="url(#paint8_linear_47_3807)"/>
<path opacity="0.18" d="M398 299.216H259.714L294.089 152H391.268C394.989 152 398 154.706 398 158.044V299.221V299.216Z" fill="url(#paint9_linear_47_3807)"/>
<rect x="417" y="193" width="101" height="46" fill="white"/>
<g opacity="0.68">
<g filter="url(#filter0_d_47_3807)">
<path d="M417 202.027C417 199.266 419.239 197.027 422 197.027H512.661C515.423 197.027 517.661 199.266 517.661 202.027V249.158C517.661 250.727 516.389 252 514.821 252H419.84C418.272 252 417 250.727 417 249.158V202.027Z" fill="white"/>
</g>
<path d="M419.84 192H514.821C516.389 192 517.661 193.273 517.661 194.842V201.083H417V194.842C417 193.273 418.272 192 419.84 192Z" fill="#00A0FF"/>
<path d="M422.893 197.65C422.283 197.65 421.786 197.153 421.786 196.541C421.786 195.93 422.283 195.433 422.893 195.433C423.504 195.433 424.001 195.93 424.001 196.541C424.001 197.153 423.504 197.65 422.893 197.65ZM422.893 195.74C422.453 195.74 422.092 196.098 422.092 196.541C422.092 196.985 422.45 197.343 422.893 197.343C423.336 197.343 423.694 196.985 423.694 196.541C423.694 196.098 423.336 195.74 422.893 195.74Z" fill="#F2F2F2"/>
<path d="M425.697 197.65C425.086 197.65 424.589 197.153 424.589 196.541C424.589 195.93 425.086 195.433 425.697 195.433C426.307 195.433 426.804 195.93 426.804 196.541C426.804 197.153 426.307 197.65 425.697 197.65ZM425.697 195.74C425.256 195.74 424.898 196.098 424.898 196.541C424.898 196.985 425.256 197.343 425.697 197.343C426.137 197.343 426.497 196.985 426.497 196.541C426.497 196.098 426.14 195.74 425.697 195.74Z" fill="#F2F2F2"/>
<path d="M428.497 197.65C427.886 197.65 427.389 197.153 427.389 196.541C427.389 195.93 427.886 195.433 428.497 195.433C429.107 195.433 429.604 195.93 429.604 196.541C429.604 197.153 429.107 197.65 428.497 197.65ZM428.497 195.74C428.057 195.74 427.696 196.098 427.696 196.541C427.696 196.985 428.054 197.343 428.497 197.343C428.94 197.343 429.295 196.985 429.295 196.541C429.295 196.098 428.937 195.74 428.497 195.74Z" fill="#F2F2F2"/>
<path d="M502.893 198.019C502.078 198.019 501.416 197.357 501.416 196.541C501.416 195.726 502.078 195.063 502.893 195.063C503.708 195.063 504.37 195.726 504.37 196.541C504.37 197.357 503.708 198.019 502.893 198.019ZM502.893 195.373C502.248 195.373 501.723 195.899 501.723 196.541C501.723 197.184 502.248 197.709 502.893 197.709C503.538 197.709 504.06 197.184 504.06 196.541C504.06 195.899 503.538 195.373 502.893 195.373Z" fill="#F2F2F2"/>
<path d="M502.884 197.087L502.123 196.322L502.339 196.106L502.884 196.649L503.427 196.106L503.645 196.322L502.884 197.087Z" fill="#F2F2F2"/>
<path d="M436.935 197.874L435.605 196.541L436.935 195.208L437.153 195.427L436.04 196.541L437.153 197.655L436.935 197.874Z" fill="#F2F2F2"/>
<path d="M439.542 197.871L439.323 197.655L440.437 196.541L439.323 195.427L439.542 195.208L440.874 196.541L439.542 197.871Z" fill="#F2F2F2"/>
<path d="M496.014 198.474H448.309C447.244 198.474 446.378 197.607 446.378 196.541C446.378 195.476 447.244 194.609 448.309 194.609H496.014C497.079 194.609 497.945 195.476 497.945 196.541C497.945 197.607 497.079 198.474 496.014 198.474ZM448.309 194.919C447.415 194.919 446.687 195.646 446.687 196.541C446.687 197.437 447.415 198.164 448.309 198.164H496.014C496.909 198.164 497.636 197.437 497.636 196.541C497.636 195.646 496.909 194.919 496.014 194.919H448.309Z" fill="#F2F2F2"/>
<path d="M507.409 195.447H507.099V197.636H507.409V195.447Z" fill="#F2F2F2"/>
<path d="M508.348 196.388H506.162V196.698H508.348V196.388Z" fill="#F2F2F2"/>
<path d="M511.428 196.419H510.232V195.223H511.428V196.419ZM510.539 196.109H511.118V195.53H510.539V196.109Z" fill="#F2F2F2"/>
<path d="M511.428 197.86H510.232V196.664H511.428V197.86ZM510.539 197.55H511.118V196.971H510.539V197.55Z" fill="#F2F2F2"/>
<path d="M512.879 196.419H511.683V195.223H512.879V196.419ZM511.99 196.109H512.569V195.53H511.99V196.109Z" fill="#F2F2F2"/>
<path d="M512.879 197.86H511.683V196.664H512.879V197.86ZM511.99 197.55H512.569V196.971H511.99V197.55Z" fill="#F2F2F2"/>
<path d="M480.24 215.031C477.412 215.031 475.12 217.35 475.12 220.207C475.12 223.063 477.414 225.379 480.24 225.379C482.444 225.379 484.322 223.972 485.043 222C485.245 221.443 485.358 220.837 485.358 220.207C485.358 217.347 483.069 215.031 480.24 215.031ZM480.24 223.765C478.298 223.765 476.721 222.173 476.721 220.207C476.721 218.24 478.298 216.645 480.24 216.645C482.183 216.645 483.759 218.237 483.759 220.207C483.759 220.638 483.683 221.056 483.541 221.437C483.052 222.793 481.76 223.765 480.24 223.765Z" fill="#A6DEFF"/>
<path d="M485.358 220.207C485.358 220.837 485.244 221.44 485.043 222L483.54 221.437C483.685 221.056 483.759 220.638 483.759 220.207C483.759 218.237 482.183 216.645 480.24 216.645V215.031C483.069 215.031 485.358 217.35 485.358 220.207Z" fill="#00A0FF"/>
<path d="M500.169 216.256H489.908C489.649 216.256 489.439 216.466 489.439 216.725V217.135C489.439 217.394 489.649 217.603 489.908 217.603H500.169C500.428 217.603 500.638 217.394 500.638 217.135V216.725C500.638 216.466 500.428 216.256 500.169 216.256Z" fill="#A6DEFF"/>
<path d="M508.008 219.533H489.908C489.649 219.533 489.439 219.743 489.439 220.002V220.411C489.439 220.67 489.649 220.88 489.908 220.88H508.008C508.267 220.88 508.477 220.67 508.477 220.411V220.002C508.477 219.743 508.267 219.533 508.008 219.533Z" fill="#A6DEFF"/>
<path d="M506.168 222.807H489.908C489.649 222.807 489.439 223.017 489.439 223.276V223.685C489.439 223.944 489.649 224.154 489.908 224.154H506.168C506.426 224.154 506.636 223.944 506.636 223.685V223.276C506.636 223.017 506.426 222.807 506.168 222.807Z" fill="#A6DEFF"/>
<path d="M480.24 228.735C477.412 228.735 475.12 231.054 475.12 233.911C475.12 236.767 477.414 239.083 480.24 239.083C482.444 239.083 484.322 237.676 485.043 235.704C485.245 235.147 485.358 234.542 485.358 233.911C485.358 231.052 483.069 228.735 480.24 228.735ZM480.24 237.469C478.298 237.469 476.721 235.877 476.721 233.911C476.721 231.944 478.298 230.35 480.24 230.35C482.183 230.35 483.759 231.941 483.759 233.911C483.759 234.343 483.683 234.76 483.541 235.141C483.052 236.497 481.76 237.469 480.24 237.469Z" fill="#A6DEFF"/>
<path d="M485.358 233.914C485.358 234.544 485.244 235.147 485.043 235.707L483.54 235.144C483.685 234.763 483.759 234.346 483.759 233.914C483.759 231.944 482.183 230.353 480.24 230.353V228.738C483.069 228.738 485.358 231.057 485.358 233.914Z" fill="#00A0FF"/>
<path d="M500.169 229.963H489.908C489.649 229.963 489.439 230.173 489.439 230.432V230.842C489.439 231.101 489.649 231.31 489.908 231.31H500.169C500.428 231.31 500.638 231.101 500.638 230.842V230.432C500.638 230.173 500.428 229.963 500.169 229.963Z" fill="#A6DEFF"/>
<path d="M508.008 233.237H489.908C489.649 233.237 489.439 233.447 489.439 233.706V234.115C489.439 234.374 489.649 234.584 489.908 234.584H508.008C508.267 234.584 508.477 234.374 508.477 234.115V233.706C508.477 233.447 508.267 233.237 508.008 233.237Z" fill="#A6DEFF"/>
<path d="M506.168 236.511H489.908C489.649 236.511 489.439 236.721 489.439 236.98V237.389C489.439 237.648 489.649 237.858 489.908 237.858H506.168C506.426 237.858 506.636 237.648 506.636 237.389V236.98C506.636 236.721 506.426 236.511 506.168 236.511Z" fill="#A6DEFF"/>
<path d="M445.676 209.771V216.282C448.65 216.282 451.342 217.487 453.291 219.437L457.892 214.833C454.765 211.704 450.448 209.771 445.676 209.771Z" fill="#0B59CE"/>
<path d="M456.443 227.059H462.95C462.95 222.284 461.016 217.964 457.891 214.835L453.291 219.439C455.239 221.389 456.443 224.083 456.443 227.059Z" fill="#0B59CE"/>
<path d="M456.443 227.059C456.443 230.034 455.239 232.728 453.291 234.678L457.891 239.282C458.908 238.265 459.797 237.119 460.536 235.874C460.618 235.738 460.697 235.599 460.774 235.46C460.939 235.161 461.098 234.86 461.246 234.553C461.444 234.141 461.626 233.717 461.791 233.288C461.865 233.095 461.936 232.902 462.004 232.706C462.027 232.637 462.049 232.569 462.072 232.504C462.152 232.268 462.225 232.032 462.294 231.791C462.333 231.654 462.37 231.518 462.404 231.378C462.475 231.103 462.541 230.824 462.598 230.543C462.828 229.417 462.95 228.252 462.95 227.059H456.443Z" fill="#FB9128"/>
<path d="M451.587 243.298C450.885 243.554 450.181 243.758 449.471 243.92C449.846 243.835 450.221 243.744 450.593 243.633C450.593 243.633 450.598 243.633 450.601 243.633C450.86 243.556 451.118 243.474 451.374 243.383C451.388 243.377 451.402 243.372 451.416 243.369C451.658 243.284 451.899 243.193 452.138 243.096C452.166 243.085 452.197 243.071 452.226 243.059C452.447 242.968 452.669 242.872 452.888 242.772C452.933 242.752 452.978 242.729 453.021 242.71C453.225 242.613 453.427 242.513 453.629 242.408C453.686 242.38 453.742 242.349 453.799 242.32C453.987 242.221 454.174 242.116 454.362 242.008C454.421 241.974 454.484 241.937 454.543 241.9C454.543 241.9 454.546 241.9 454.549 241.897C454.728 241.789 454.907 241.678 455.086 241.561C455.114 241.544 455.143 241.524 455.171 241.505C455.205 241.482 455.236 241.462 455.27 241.439C455.449 241.32 455.628 241.195 455.801 241.067C455.801 241.067 455.801 241.067 455.804 241.067C455.855 241.03 455.909 240.993 455.961 240.953C456.145 240.817 456.33 240.675 456.511 240.527C456.551 240.496 456.588 240.464 456.628 240.433C456.827 240.271 457.02 240.103 457.213 239.93C457.233 239.913 457.253 239.896 457.273 239.876C457.486 239.683 457.693 239.487 457.897 239.279L453.296 234.675C452.197 235.775 450.86 236.639 449.369 237.182L451.592 243.295L451.587 243.298Z" fill="#00A0FF"/>
<path d="M441.703 243.881C441.882 243.923 442.061 243.963 442.24 243.997C442.314 244.011 442.387 244.028 442.461 244.043C442.657 244.08 442.856 244.114 443.052 244.142C443.225 244.168 443.401 244.19 443.575 244.213C443.637 244.222 443.697 244.227 443.759 244.236C443.938 244.256 444.117 244.273 444.299 244.287C444.341 244.29 444.387 244.293 444.429 244.296C444.841 244.324 445.256 244.341 445.676 244.341V237.833C442.703 237.833 440.01 236.628 438.062 234.678L433.461 239.282C433.461 239.282 433.481 239.302 433.492 239.314C433.688 239.507 433.884 239.697 434.086 239.879C434.106 239.896 434.126 239.913 434.145 239.933C434.339 240.106 434.532 240.274 434.73 240.436C434.767 240.467 434.807 240.499 434.847 240.53C435.029 240.675 435.21 240.817 435.398 240.956C435.449 240.996 435.503 241.033 435.557 241.073C435.733 241.201 435.909 241.323 436.088 241.445C436.148 241.485 436.21 241.525 436.27 241.564C436.446 241.681 436.625 241.792 436.807 241.9C436.869 241.937 436.932 241.974 436.994 242.011C437.042 242.039 437.091 242.065 437.139 242.09C437.278 242.17 437.417 242.249 437.556 242.323C437.613 242.354 437.67 242.383 437.727 242.411C437.928 242.516 438.13 242.616 438.335 242.713C438.38 242.732 438.423 242.755 438.468 242.775C438.687 242.875 438.908 242.971 439.133 243.062C439.161 243.073 439.192 243.088 439.221 243.099C439.28 243.122 439.337 243.142 439.397 243.164C439.578 243.235 439.76 243.306 439.942 243.372C439.757 243.306 439.576 243.235 439.397 243.164C439.578 243.235 439.76 243.306 439.942 243.372C439.956 243.378 439.97 243.383 439.985 243.386C440.24 243.474 440.499 243.559 440.757 243.636H440.763C441.001 243.707 441.243 243.77 441.484 243.829C441.558 243.846 441.632 243.864 441.706 243.881H441.703Z" fill="#0B59CE"/>
<path d="M445.676 244.341C445.676 244.341 445.679 244.344 445.682 244.344C445.926 244.344 446.168 244.335 446.412 244.327C446.474 244.327 446.534 244.321 446.596 244.318C446.832 244.307 447.065 244.29 447.301 244.267C447.358 244.261 447.414 244.253 447.471 244.247C447.642 244.23 447.812 244.207 447.982 244.185C448.093 244.17 448.201 244.153 448.312 244.136C448.417 244.119 448.522 244.102 448.624 244.082C448.883 244.037 449.141 243.989 449.4 243.929C449.422 243.923 449.445 243.918 449.471 243.915C450.178 243.756 450.885 243.548 451.587 243.292L449.363 237.179C448.212 237.597 446.971 237.827 445.679 237.827V244.335L445.676 244.341Z" fill="#40CDA7"/>
<path d="M445.676 216.285V209.774C442.6 209.774 439.712 210.581 437.21 211.991C437.122 212.042 437.034 212.09 436.946 212.141C435.671 212.889 434.501 213.795 433.464 214.836L438.065 219.44C440.013 217.49 442.706 216.285 445.679 216.285H445.676Z" fill="#40CDA7"/>
<path d="M432.814 215.52C432.64 215.711 432.476 215.907 432.314 216.103C432.283 216.143 432.251 216.18 432.22 216.219C432.075 216.401 431.933 216.583 431.794 216.768C431.754 216.822 431.717 216.873 431.678 216.927C431.55 217.103 431.428 217.279 431.308 217.459C431.269 217.518 431.226 217.581 431.186 217.643C431.073 217.819 430.959 217.998 430.851 218.178C430.814 218.24 430.777 218.303 430.74 218.365C430.632 218.55 430.527 218.737 430.428 218.925C430.397 218.982 430.368 219.039 430.337 219.095C430.232 219.294 430.133 219.499 430.039 219.701C430.019 219.746 429.996 219.792 429.976 219.837C429.877 220.056 429.78 220.278 429.69 220.499C429.678 220.531 429.664 220.559 429.653 220.59C429.556 220.829 429.465 221.071 429.38 221.312C429.374 221.326 429.369 221.341 429.363 221.358C429.275 221.613 429.19 221.872 429.113 222.131C429.113 222.131 429.113 222.136 429.113 222.139C428.877 222.938 428.698 223.754 428.582 224.572V224.578C428.542 224.848 428.511 225.118 428.485 225.388C428.485 225.399 428.485 225.408 428.485 225.419C428.46 225.683 428.44 225.948 428.429 226.215C428.429 226.229 428.429 226.243 428.429 226.26C428.417 226.524 428.409 226.792 428.409 227.056H434.915C434.915 224.08 436.12 221.386 438.068 219.437L433.467 214.833C433.262 215.037 433.064 215.247 432.873 215.458C432.856 215.478 432.836 215.498 432.819 215.517L432.814 215.52Z" fill="#40CDA7"/>
<path d="M434.909 227.059H428.403C428.403 227.317 428.409 227.573 428.42 227.829C428.42 227.86 428.42 227.888 428.423 227.92C428.434 228.173 428.454 228.426 428.477 228.679C428.477 228.704 428.482 228.727 428.482 228.752C428.508 229.014 428.539 229.275 428.576 229.537C428.576 229.542 428.576 229.545 428.576 229.551C428.695 230.37 428.871 231.182 429.107 231.978C429.107 231.978 429.107 231.984 429.107 231.987C429.184 232.24 429.263 232.492 429.351 232.745C429.36 232.765 429.366 232.788 429.374 232.808C429.457 233.044 429.545 233.277 429.638 233.51C429.652 233.55 429.67 233.587 429.687 233.626C429.775 233.842 429.868 234.058 429.968 234.274C429.993 234.328 430.016 234.38 430.042 234.434C430.135 234.63 430.232 234.826 430.331 235.022C430.343 235.045 430.354 235.064 430.365 235.087C430.388 235.133 430.414 235.175 430.436 235.221C430.533 235.4 430.629 235.579 430.735 235.755C430.757 235.792 430.777 235.829 430.8 235.866C430.823 235.903 430.845 235.943 430.868 235.98C430.967 236.147 431.073 236.312 431.18 236.477C431.209 236.52 431.234 236.559 431.263 236.602C431.286 236.636 431.308 236.667 431.331 236.701C431.442 236.866 431.555 237.028 431.672 237.19C431.7 237.23 431.729 237.27 431.757 237.31C431.777 237.335 431.797 237.361 431.814 237.386C431.942 237.56 432.075 237.73 432.211 237.898C432.237 237.929 432.26 237.96 432.285 237.989C432.299 238.006 432.314 238.023 432.331 238.043C432.484 238.23 432.643 238.415 432.808 238.597C432.822 238.611 432.833 238.625 432.848 238.643C432.859 238.654 432.87 238.668 432.882 238.679C433.063 238.881 433.251 239.077 433.444 239.271C433.447 239.273 433.453 239.279 433.455 239.282L438.056 234.678C436.108 232.728 434.904 230.034 434.904 227.059H434.909Z" fill="#40CDA7"/>
<path d="M435.338 217.459C435.307 217.459 435.279 217.447 435.256 217.425L430.121 212.286H429.033C428.968 212.286 428.917 212.235 428.917 212.17C428.917 212.104 428.968 212.053 429.033 212.053H430.169C430.201 212.053 430.229 212.065 430.252 212.087L435.421 217.26C435.466 217.305 435.466 217.379 435.421 217.425C435.398 217.447 435.367 217.459 435.338 217.459Z" fill="#40CDA7"/>
<path d="M427.647 212.243H422.015C421.95 212.243 421.899 212.192 421.899 212.127C421.899 212.061 421.95 212.01 422.015 212.01H427.647C427.713 212.01 427.764 212.061 427.764 212.127C427.764 212.192 427.713 212.243 427.647 212.243Z" fill="#40CDA7"/>
<path d="M427.647 213.381H422.015C421.95 213.381 421.899 213.329 421.899 213.264C421.899 213.199 421.95 213.147 422.015 213.147H427.647C427.713 213.147 427.764 213.199 427.764 213.264C427.764 213.329 427.713 213.381 427.647 213.381Z" fill="#40CDA7"/>
<path d="M427.647 214.517H424.202C424.137 214.517 424.086 214.466 424.086 214.401C424.086 214.335 424.137 214.284 424.202 214.284H427.647C427.713 214.284 427.764 214.335 427.764 214.401C427.764 214.466 427.713 214.517 427.647 214.517Z" fill="#40CDA7"/>
<path d="M457.571 221.497C457.539 221.497 457.511 221.485 457.488 221.463C457.443 221.417 457.443 221.343 457.488 221.298L462.657 216.125C462.68 216.103 462.708 216.091 462.74 216.091H463.876C463.941 216.091 463.992 216.142 463.992 216.208C463.992 216.273 463.941 216.324 463.876 216.324H462.788L457.653 221.463C457.63 221.485 457.599 221.497 457.571 221.497Z" fill="#40CDA7"/>
<path d="M470.896 216.282H465.264C465.199 216.282 465.148 216.231 465.148 216.165C465.148 216.1 465.199 216.049 465.264 216.049H470.896C470.962 216.049 471.013 216.1 471.013 216.165C471.013 216.231 470.962 216.282 470.896 216.282Z" fill="#40CDA7"/>
<path d="M470.896 217.419H465.264C465.199 217.419 465.148 217.367 465.148 217.302C465.148 217.237 465.199 217.186 465.264 217.186H470.896C470.962 217.186 471.013 217.237 471.013 217.302C471.013 217.367 470.962 217.419 470.896 217.419Z" fill="#40CDA7"/>
<path d="M470.896 218.555H467.451C467.386 218.555 467.335 218.504 467.335 218.439C467.335 218.373 467.386 218.322 467.451 218.322H470.896C470.962 218.322 471.013 218.373 471.013 218.439C471.013 218.504 470.962 218.555 470.896 218.555Z" fill="#40CDA7"/>
</g>
<rect x="104" y="68" width="101" height="46" fill="white"/>
<g opacity="0.68">
<g filter="url(#filter1_d_47_3807)">
<path d="M103 72.0273C103 69.2659 105.239 67.0273 108 67.0273H198.661C201.423 67.0273 203.661 69.2659 203.661 72.0273V119.158C203.661 120.727 202.389 122 200.821 122H105.84C104.272 122 103 120.727 103 119.158V72.0273Z" fill="white"/>
</g>
<path d="M105.84 62H200.821C202.389 62 203.661 63.2732 203.661 64.842V71.083H103V64.842C103 63.2732 104.272 62 105.84 62Z" fill="#00A0FF"/>
<path d="M108.893 67.6499C108.283 67.6499 107.786 67.1525 107.786 66.5415C107.786 65.9305 108.283 65.4331 108.893 65.4331C109.504 65.4331 110.001 65.9305 110.001 66.5415C110.001 67.1525 109.504 67.6499 108.893 67.6499ZM108.893 65.74C108.453 65.74 108.092 66.0981 108.092 66.5415C108.092 66.9848 108.45 67.3429 108.893 67.3429C109.336 67.3429 109.694 66.9848 109.694 66.5415C109.694 66.0981 109.336 65.74 108.893 65.74Z" fill="#F2F2F2"/>
<path d="M111.697 67.6499C111.086 67.6499 110.589 67.1525 110.589 66.5415C110.589 65.9305 111.086 65.4331 111.697 65.4331C112.307 65.4331 112.804 65.9305 112.804 66.5415C112.804 67.1525 112.307 67.6499 111.697 67.6499ZM111.697 65.74C111.256 65.74 110.898 66.0981 110.898 66.5415C110.898 66.9848 111.256 67.3429 111.697 67.3429C112.137 67.3429 112.497 66.9848 112.497 66.5415C112.497 66.0981 112.14 65.74 111.697 65.74Z" fill="#F2F2F2"/>
<path d="M114.497 67.6499C113.886 67.6499 113.389 67.1525 113.389 66.5415C113.389 65.9305 113.886 65.4331 114.497 65.4331C115.107 65.4331 115.604 65.9305 115.604 66.5415C115.604 67.1525 115.107 67.6499 114.497 67.6499ZM114.497 65.74C114.057 65.74 113.696 66.0981 113.696 66.5415C113.696 66.9848 114.054 67.3429 114.497 67.3429C114.94 67.3429 115.295 66.9848 115.295 66.5415C115.295 66.0981 114.937 65.74 114.497 65.74Z" fill="#F2F2F2"/>
<path d="M188.893 68.0191C188.078 68.0191 187.416 67.357 187.416 66.5413C187.416 65.7257 188.078 65.0635 188.893 65.0635C189.708 65.0635 190.37 65.7257 190.37 66.5413C190.37 67.357 189.708 68.0191 188.893 68.0191ZM188.893 65.3733C188.248 65.3733 187.723 65.899 187.723 66.5413C187.723 67.1836 188.248 67.7094 188.893 67.7094C189.538 67.7094 190.06 67.1836 190.06 66.5413C190.06 65.899 189.538 65.3733 188.893 65.3733Z" fill="#F2F2F2"/>
<path d="M188.884 67.0869L188.123 66.3224L188.339 66.1064L188.884 66.6493L189.427 66.1064L189.645 66.3224L188.884 67.0869Z" fill="#F2F2F2"/>
<path d="M122.935 67.8743L121.605 66.5414L122.935 65.2085L123.153 65.4273L122.04 66.5414L123.153 67.6554L122.935 67.8743Z" fill="#F2F2F2"/>
<path d="M125.542 67.8714L125.323 67.6554L126.437 66.5414L125.323 65.4273L125.542 65.2085L126.874 66.5414L125.542 67.8714Z" fill="#F2F2F2"/>
<path d="M182.014 68.474H134.309C133.244 68.474 132.378 67.6072 132.378 66.5414C132.378 65.4757 133.244 64.6089 134.309 64.6089H182.014C183.079 64.6089 183.945 65.4757 183.945 66.5414C183.945 67.6072 183.079 68.474 182.014 68.474ZM134.309 64.9187C133.415 64.9187 132.687 65.6462 132.687 66.5414C132.687 67.4367 133.415 68.1642 134.309 68.1642H182.014C182.909 68.1642 183.636 67.4367 183.636 66.5414C183.636 65.6462 182.909 64.9187 182.014 64.9187H134.309Z" fill="#F2F2F2"/>
<path d="M193.409 65.4473H193.099V67.6356H193.409V65.4473Z" fill="#F2F2F2"/>
<path d="M194.348 66.3882H192.162V66.698H194.348V66.3882Z" fill="#F2F2F2"/>
<path d="M197.428 66.4191H196.232V65.2227H197.428V66.4191ZM196.539 66.1094H197.118V65.5296H196.539V66.1094Z" fill="#F2F2F2"/>
<path d="M197.428 67.86H196.232V66.6636H197.428V67.86ZM196.539 67.5503H197.118V66.9705H196.539V67.5503Z" fill="#F2F2F2"/>
<path d="M198.879 66.4191H197.683V65.2227H198.879V66.4191ZM197.99 66.1094H198.569V65.5296H197.99V66.1094Z" fill="#F2F2F2"/>
<path d="M198.879 67.86H197.683V66.6636H198.879V67.86ZM197.99 67.5503H198.569V66.9705H197.99V67.5503Z" fill="#F2F2F2"/>
<path d="M189.595 100.546C161.815 100.546 112.655 100.49 112.655 100.427C112.655 100.364 135.167 100.308 162.947 100.308" fill="#00A0FF"/>
<path d="M189.595 93.9962C161.815 93.9962 112.655 93.9398 112.655 93.877C112.655 93.8143 135.167 93.7578 162.947 93.7578" fill="#00A0FF"/>
<path d="M189.595 87.4523C161.815 87.4523 112.655 87.3958 112.655 87.3331C112.655 87.2703 135.167 87.2139 162.947 87.2139" fill="#00A0FF"/>
<path d="M162.947 80.9088C135.167 80.9088 112.655 80.8524 112.655 80.7896C112.655 80.7269 161.815 80.6704 189.595 80.6704" fill="#00A0FF"/>
<path d="M129.532 97.459H121.168V110.145H129.532V97.459Z" fill="#40C6A7"/>
<path d="M159.559 97.459H151.195V110.145H159.559V97.459Z" fill="#0B59CE"/>
<path d="M189.595 91.4487H181.231V110.145H189.595V91.4487Z" fill="#00A0FF"/>
<path d="M174.24 84.1714H165.876V110.145H174.24V84.1714Z" fill="#40C6A7"/>
<path d="M143.946 91.4487H135.583V110.145H143.946V91.4487Z" fill="#00A0FF"/>
<path d="M190.801 110.226C177.677 110.233 159.559 110.245 139.544 110.264C129.973 110.264 120.827 110.264 112.505 110.258H112.355V110.145C112.38 100.094 112.397 91.5304 112.413 85.47C112.43 82.4523 112.447 80.0557 112.455 78.3994C112.463 77.5838 112.471 76.9565 112.48 76.5173C112.48 76.3103 112.488 76.1534 112.488 76.0342C112.488 75.9276 112.496 75.8711 112.496 75.8711C112.496 75.8711 112.505 75.9276 112.505 76.0342C112.505 76.1534 112.505 76.3103 112.513 76.5173C112.513 76.9502 112.53 77.5838 112.538 78.3994C112.546 80.0494 112.563 82.446 112.58 85.47C112.596 91.5304 112.613 100.094 112.638 110.145L112.488 110.032C120.81 110.032 129.948 110.032 139.527 110.026C159.534 110.038 177.652 110.051 190.785 110.063" fill="#FB9218"/>
<path d="M133.777 116.582H130.098V119.355H133.777V116.582Z" fill="#40C6A7"/>
<path d="M156.256 116.494H152.577V119.267H156.256V116.494Z" fill="#00A0FF"/>
<path d="M180.565 116.582H176.886V119.355H180.565V116.582Z" fill="#0B59CE"/>
<path d="M145.952 117.874C145.952 117.943 143.714 117.993 140.942 117.993C138.171 117.993 135.932 117.937 135.932 117.874C135.932 117.811 138.171 117.755 140.942 117.755C143.714 117.755 145.952 117.811 145.952 117.874Z" fill="#FB9218"/>
<path d="M168.256 117.874C168.256 117.943 166.018 117.993 163.246 117.993C160.475 117.993 158.236 117.937 158.236 117.874C158.236 117.811 160.475 117.755 163.246 117.755C166.018 117.755 168.256 117.811 168.256 117.874Z" fill="#FB9218"/>
<path d="M192 117.874C192 117.943 189.761 117.993 186.99 117.993C184.219 117.993 181.98 117.937 181.98 117.874C181.98 117.811 184.219 117.755 186.99 117.755C189.761 117.755 192 117.811 192 117.874Z" fill="#FB9218"/>
</g>
<rect x="40" y="198" width="101" height="46" fill="white"/>
<g opacity="0.68">
<g filter="url(#filter2_d_47_3807)">
<path d="M40 201.027C40 198.266 42.2386 196.027 45 196.027H135.661C138.423 196.027 140.661 198.266 140.661 201.027V248.158C140.661 249.727 139.389 251 137.821 251H42.8401C41.2724 251 40 249.727 40 248.158V201.027Z" fill="white"/>
</g>
<path d="M42.8401 191H137.821C139.389 191 140.661 192.273 140.661 193.842V200.083H40V193.842C40 192.273 41.2724 191 42.8401 191Z" fill="#00A0FF"/>
<path d="M45.8933 196.65C45.2827 196.65 44.7856 196.153 44.7856 195.541C44.7856 194.93 45.2827 194.433 45.8933 194.433C46.5039 194.433 47.0009 194.93 47.0009 195.541C47.0009 196.153 46.5039 196.65 45.8933 196.65ZM45.8933 194.74C45.4531 194.74 45.0924 195.098 45.0924 195.541C45.0924 195.985 45.4502 196.343 45.8933 196.343C46.3363 196.343 46.6942 195.985 46.6942 195.541C46.6942 195.098 46.3363 194.74 45.8933 194.74Z" fill="#F2F2F2"/>
<path d="M48.6965 196.65C48.0859 196.65 47.5889 196.153 47.5889 195.541C47.5889 194.93 48.0859 194.433 48.6965 194.433C49.3071 194.433 49.8041 194.93 49.8041 195.541C49.8041 196.153 49.3071 196.65 48.6965 196.65ZM48.6965 194.74C48.2563 194.74 47.8984 195.098 47.8984 195.541C47.8984 195.985 48.2563 196.343 48.6965 196.343C49.1367 196.343 49.4974 195.985 49.4974 195.541C49.4974 195.098 49.1396 194.74 48.6965 194.74Z" fill="#F2F2F2"/>
<path d="M51.4968 196.65C50.8862 196.65 50.3892 196.153 50.3892 195.541C50.3892 194.93 50.8862 194.433 51.4968 194.433C52.1074 194.433 52.6044 194.93 52.6044 195.541C52.6044 196.153 52.1074 196.65 51.4968 196.65ZM51.4968 194.74C51.0566 194.74 50.6959 195.098 50.6959 195.541C50.6959 195.985 51.0537 196.343 51.4968 196.343C51.9398 196.343 52.2949 195.985 52.2949 195.541C52.2949 195.098 51.937 194.74 51.4968 194.74Z" fill="#F2F2F2"/>
<path d="M125.893 197.019C125.078 197.019 124.416 196.357 124.416 195.541C124.416 194.726 125.078 194.063 125.893 194.063C126.708 194.063 127.37 194.726 127.37 195.541C127.37 196.357 126.708 197.019 125.893 197.019ZM125.893 194.373C125.248 194.373 124.723 194.899 124.723 195.541C124.723 196.184 125.248 196.709 125.893 196.709C126.538 196.709 127.06 196.184 127.06 195.541C127.06 194.899 126.538 194.373 125.893 194.373Z" fill="#F2F2F2"/>
<path d="M125.884 196.087L125.123 195.322L125.339 195.106L125.884 195.649L126.427 195.106L126.645 195.322L125.884 196.087Z" fill="#F2F2F2"/>
<path d="M59.9346 196.874L58.6055 195.541L59.9346 194.208L60.1533 194.427L59.04 195.541L60.1533 196.655L59.9346 196.874Z" fill="#F2F2F2"/>
<path d="M62.5419 196.871L62.3232 196.655L63.4366 195.541L62.3232 194.427L62.5419 194.208L63.8739 195.541L62.5419 196.871Z" fill="#F2F2F2"/>
<path d="M119.014 197.474H71.3092C70.2442 197.474 69.3779 196.607 69.3779 195.541C69.3779 194.476 70.2442 193.609 71.3092 193.609H119.014C120.079 193.609 120.945 194.476 120.945 195.541C120.945 196.607 120.079 197.474 119.014 197.474ZM71.3092 193.919C70.4146 193.919 69.6875 194.646 69.6875 195.541C69.6875 196.437 70.4146 197.164 71.3092 197.164H119.014C119.909 197.164 120.636 196.437 120.636 195.541C120.636 194.646 119.909 193.919 119.014 193.919H71.3092Z" fill="#F2F2F2"/>
<path d="M130.409 194.447H130.099V196.636H130.409V194.447Z" fill="#F2F2F2"/>
<path d="M131.348 195.388H129.162V195.698H131.348V195.388Z" fill="#F2F2F2"/>
<path d="M134.428 195.419H133.232V194.223H134.428V195.419ZM133.539 195.109H134.118V194.53H133.539V195.109Z" fill="#F2F2F2"/>
<path d="M134.428 196.86H133.232V195.664H134.428V196.86ZM133.539 196.55H134.118V195.971H133.539V196.55Z" fill="#F2F2F2"/>
<path d="M135.879 195.419H134.683V194.223H135.879V195.419ZM134.99 195.109H135.569V194.53H134.99V195.109Z" fill="#F2F2F2"/>
<path d="M135.879 196.86H134.683V195.664H135.879V196.86ZM134.99 196.55H135.569V195.971H134.99V196.55Z" fill="#F2F2F2"/>
<path d="M131.865 229.325C131.865 229.386 112.518 229.436 88.6582 229.436C64.7987 229.436 45.4473 229.386 45.4473 229.325C45.4473 229.264 64.7908 229.214 88.6582 229.214C112.526 229.214 131.865 229.264 131.865 229.325Z" fill="#00A0FF"/>
<path d="M131.865 222.799C131.865 222.86 112.518 222.91 88.6582 222.91C64.7987 222.91 45.4473 222.86 45.4473 222.799C45.4473 222.738 64.7908 222.688 88.6582 222.688C112.526 222.688 131.865 222.738 131.865 222.799Z" fill="#00A0FF"/>
<rect x="40" y="198" width="101" height="46" fill="white"/>
<path d="M131.865 216.269C131.865 216.33 112.518 216.38 88.6582 216.38C64.7987 216.38 45.4473 216.33 45.4473 216.269C45.4473 216.208 64.7908 216.158 88.6582 216.158C112.526 216.158 131.865 216.208 131.865 216.269Z" fill="#00A0FF"/>
<path d="M131.865 209.743C131.865 209.804 112.518 209.854 88.6582 209.854C64.7987 209.854 45.4473 209.804 45.4473 209.743C45.4473 209.682 64.7908 209.631 88.6582 209.631C112.526 209.631 131.865 209.682 131.865 209.743Z" fill="#00A0FF"/>
<path d="M125.792 229.085C124.109 225.529 122.955 221.64 121.66 217.959C120.536 214.751 120.431 213.252 119.468 210.543C117.95 206.277 113.927 205.803 111 206.959C108.393 207.988 107.27 210.668 106.405 213.083C105.372 215.968 104.335 218.852 103.302 221.737C102.813 223.104 102.312 224.492 101.408 225.683C100.508 226.875 99.1344 227.861 97.53 228.048C94.8885 228.353 92.5209 226.415 91.39 224.277C90.259 222.135 89.9459 219.721 88.9363 217.536C87.9267 215.347 85.8487 213.248 83.1837 213.205C79.9044 213.151 77.6738 216.082 76.308 218.73C74.5901 222.063 73.2047 225.533 72.1716 229.081C71.8194 230.29 71.4985 231.528 70.798 232.608C70.0976 233.691 68.9314 234.614 67.5343 234.764C65.7342 234.958 64.0593 233.835 63.0144 232.518C61.9696 231.202 61.3239 229.662 60.2516 228.364C59.1794 227.065 57.4497 225.988 55.6613 226.261C54.0568 226.505 52.9063 227.739 51.9554 228.913C49.3882 232.088 47.1655 235.475 45.3184 239.023H134.707C130.59 237.782 127.471 232.644 125.788 229.085H125.792Z" fill="#40C6A7"/>
<path d="M107.521 242.103H103.298V245.798H107.521V242.103Z" fill="#40C6A7"/>
<path d="M133.92 243.95H111.908C111.642 243.95 111.422 243.76 111.422 243.527C111.422 243.294 111.638 243.104 111.908 243.104H133.92C134.186 243.104 134.405 243.294 134.405 243.527C134.405 243.76 134.19 243.95 133.92 243.95Z" fill="#FB9218"/>
<path d="M130.832 239.019C130.832 239.019 130.723 239.027 130.511 239.03C130.288 239.03 129.975 239.037 129.568 239.041C128.731 239.044 127.51 239.052 125.94 239.062C122.779 239.07 118.223 239.084 112.592 239.098C101.314 239.105 85.7467 239.12 68.5515 239.131C60.3257 239.131 52.4716 239.123 45.322 239.123H45.2046V239.019C45.2242 228.999 45.2398 220.456 45.2515 214.411C45.2672 211.397 45.2789 209.007 45.2868 207.36C45.2946 206.546 45.3024 205.918 45.3063 205.488C45.3103 205.28 45.3142 205.122 45.3142 205.007C45.3142 204.899 45.3259 204.842 45.3259 204.842C45.3259 204.842 45.3337 204.896 45.3376 205.007C45.3376 205.122 45.3416 205.283 45.3455 205.488C45.3494 205.922 45.3572 206.55 45.365 207.36C45.3729 209.007 45.3846 211.397 45.4003 214.411C45.412 220.456 45.4276 228.999 45.4472 239.019L45.3298 238.915C52.4795 238.915 60.3335 238.912 68.5593 238.908C85.7545 238.923 101.322 238.933 112.6 238.94C118.231 238.955 122.786 238.969 125.948 238.976C127.518 238.987 128.739 238.991 129.576 238.998C129.983 239.001 130.3 239.005 130.519 239.009C130.73 239.012 130.84 239.019 130.84 239.019H130.832Z" fill="#FB9218"/>
<g opacity="0.3">
<path d="M120.333 213.41L88.6074 239.02H104.472L123.573 223.549L120.333 213.41Z" fill="white"/>
</g>
<g opacity="0.3">
<path d="M92.3839 225.726L74.9305 239.019H70.438L91.0495 223.552L92.8457 226.214" fill="white"/>
</g>
<path d="M45.3223 238.695C45.3223 238.695 46.195 236.8 48.2573 233.589C49.2982 231.989 50.6405 230.062 52.4093 227.946C52.8672 227.429 53.3837 226.905 54.0412 226.489C54.6908 226.069 55.5204 225.789 56.3931 225.825C57.2658 225.857 58.1149 226.184 58.835 226.658C59.5629 227.131 60.1851 227.759 60.686 228.459C61.7152 229.844 62.3766 231.519 63.7423 232.847C64.4272 233.489 65.2881 234.056 66.3056 234.278C66.8104 234.386 67.3426 234.4 67.8591 234.296C68.3718 234.192 68.861 233.98 69.2875 233.69C70.1524 233.116 70.7785 232.276 71.1894 231.358C71.612 230.439 71.8586 229.445 72.156 228.448C72.7469 226.449 73.4669 224.419 74.3318 222.374C74.7623 221.351 75.2318 220.329 75.7367 219.302C76.2376 218.28 76.7737 217.243 77.4703 216.271C78.1668 215.306 78.9965 214.362 80.1 213.673C80.6479 213.332 81.2623 213.045 81.9354 212.902C82.6046 212.762 83.309 212.737 83.9899 212.848C85.3674 213.078 86.5531 213.849 87.4414 214.778C88.3415 215.711 88.9794 216.838 89.4138 218.004C89.8599 219.17 90.1729 220.375 90.5604 221.563C90.9517 222.747 91.4095 223.934 92.1961 224.968C92.9788 225.99 94.0315 226.887 95.319 227.346C96.5986 227.82 98.0974 227.709 99.2558 227.067C100.434 226.446 101.299 225.463 101.901 224.401C102.508 223.332 102.899 222.187 103.306 221.057C104.116 218.797 104.914 216.579 105.693 214.405C106.088 213.322 106.448 212.238 106.891 211.187C107.333 210.139 107.869 209.117 108.628 208.234C109.008 207.793 109.446 207.391 109.955 207.068C110.46 206.738 111.027 206.505 111.606 206.325C112.189 206.15 112.796 206.053 113.399 206.01C114.005 205.977 114.612 206.028 115.199 206.142C116.361 206.404 117.418 206.986 118.138 207.786C118.881 208.571 119.335 209.511 119.66 210.437C120.313 212.295 120.67 214.143 121.198 215.876C121.452 216.744 121.75 217.584 122.035 218.409C122.313 219.234 122.587 220.042 122.853 220.831C123.906 223.988 124.923 226.833 126.105 229.23C127.279 231.627 128.551 233.6 129.807 235.071C131.055 236.549 132.292 237.511 133.22 238.031C133.693 238.275 134.061 238.458 134.327 238.544C134.585 238.644 134.718 238.698 134.718 238.698C134.718 238.698 134.581 238.655 134.315 238.566C134.045 238.487 133.674 238.311 133.188 238.07C132.245 237.561 130.989 236.603 129.721 235.125C128.445 233.654 127.162 231.68 125.968 229.28C124.767 226.88 123.738 224.031 122.673 220.878C122.403 220.088 122.129 219.281 121.847 218.456C121.562 217.634 121.26 216.791 121.002 215.919C120.47 214.179 120.106 212.335 119.452 210.491C119.132 209.576 118.685 208.665 117.965 207.908C117.265 207.136 116.255 206.584 115.14 206.333C114.576 206.225 113.993 206.175 113.406 206.207C112.823 206.25 112.236 206.343 111.673 206.515C110.538 206.842 109.532 207.488 108.808 208.36C108.073 209.217 107.544 210.222 107.11 211.262C106.675 212.303 106.315 213.386 105.92 214.473C105.141 216.648 104.347 218.868 103.537 221.125C103.13 222.252 102.739 223.407 102.12 224.501C101.506 225.588 100.614 226.611 99.381 227.26C98.7705 227.58 98.074 227.809 97.35 227.852C96.626 227.906 95.8903 227.795 95.2211 227.558C93.8671 227.077 92.787 226.148 91.9809 225.097C91.1669 224.031 90.7091 222.822 90.3138 221.631C89.9225 220.436 89.6133 219.234 89.1711 218.083C88.7407 216.927 88.1224 215.84 87.2458 214.929C86.3809 214.025 85.2421 213.289 83.939 213.07C83.2933 212.963 82.6241 212.984 81.9902 213.117C81.3562 213.253 80.7692 213.526 80.237 213.853C79.1726 214.516 78.3586 215.438 77.6699 216.389C76.9811 217.347 76.4528 218.37 75.948 219.392C75.4432 220.415 74.9736 221.434 74.5431 222.453C73.6783 224.49 72.9582 226.514 72.3634 228.505C72.066 229.499 71.8155 230.5 71.3811 231.437C70.9585 232.373 70.3128 233.245 69.4049 233.844C68.9549 234.145 68.4422 234.371 67.8944 234.479C67.3465 234.59 66.7791 234.572 66.2468 234.457C65.1785 234.221 64.2941 233.632 63.5897 232.969C62.1926 231.598 61.543 229.919 60.5295 228.548C60.0364 227.856 59.4337 227.246 58.7254 226.783C58.0249 226.32 57.2071 226.005 56.3774 225.972C55.5478 225.933 54.7534 226.198 54.1234 226.6C53.4855 227.002 52.9728 227.515 52.515 228.024C50.7422 230.123 49.3882 232.043 48.3355 233.632C47.2868 235.225 46.5472 236.503 46.0541 237.367C45.8154 237.798 45.6314 238.131 45.5062 238.357C45.3849 238.58 45.3145 238.695 45.3145 238.695H45.3223Z" fill="#FB9218"/>
</g>
<rect x="345" y="69" width="101" height="46" fill="white"/>
<g opacity="0.68">
<g filter="url(#filter3_d_47_3807)">
<path d="M345 72.0273C345 69.2659 347.239 67.0273 350 67.0273H440.661C443.423 67.0273 445.661 69.2659 445.661 72.0273V119.158C445.661 120.727 444.389 122 442.821 122H347.84C346.272 122 345 120.727 345 119.158V72.0273Z" fill="white"/>
</g>
<path d="M347.84 62H442.821C444.389 62 445.661 63.2732 445.661 64.842V71.083H345V64.842C345 63.2732 346.272 62 347.84 62Z" fill="#00A0FF"/>
<path d="M350.893 67.6499C350.283 67.6499 349.786 67.1525 349.786 66.5415C349.786 65.9305 350.283 65.4331 350.893 65.4331C351.504 65.4331 352.001 65.9305 352.001 66.5415C352.001 67.1525 351.504 67.6499 350.893 67.6499ZM350.893 65.74C350.453 65.74 350.092 66.0981 350.092 66.5415C350.092 66.9848 350.45 67.3429 350.893 67.3429C351.336 67.3429 351.694 66.9848 351.694 66.5415C351.694 66.0981 351.336 65.74 350.893 65.74Z" fill="#F2F2F2"/>
<path d="M353.697 67.6499C353.086 67.6499 352.589 67.1525 352.589 66.5415C352.589 65.9305 353.086 65.4331 353.697 65.4331C354.307 65.4331 354.804 65.9305 354.804 66.5415C354.804 67.1525 354.307 67.6499 353.697 67.6499ZM353.697 65.74C353.256 65.74 352.898 66.0981 352.898 66.5415C352.898 66.9848 353.256 67.3429 353.697 67.3429C354.137 67.3429 354.497 66.9848 354.497 66.5415C354.497 66.0981 354.14 65.74 353.697 65.74Z" fill="#F2F2F2"/>
<path d="M356.497 67.6499C355.886 67.6499 355.389 67.1525 355.389 66.5415C355.389 65.9305 355.886 65.4331 356.497 65.4331C357.107 65.4331 357.604 65.9305 357.604 66.5415C357.604 67.1525 357.107 67.6499 356.497 67.6499ZM356.497 65.74C356.057 65.74 355.696 66.0981 355.696 66.5415C355.696 66.9848 356.054 67.3429 356.497 67.3429C356.94 67.3429 357.295 66.9848 357.295 66.5415C357.295 66.0981 356.937 65.74 356.497 65.74Z" fill="#F2F2F2"/>
<path d="M430.893 68.0191C430.078 68.0191 429.416 67.357 429.416 66.5413C429.416 65.7257 430.078 65.0635 430.893 65.0635C431.708 65.0635 432.37 65.7257 432.37 66.5413C432.37 67.357 431.708 68.0191 430.893 68.0191ZM430.893 65.3733C430.248 65.3733 429.723 65.899 429.723 66.5413C429.723 67.1836 430.248 67.7094 430.893 67.7094C431.538 67.7094 432.06 67.1836 432.06 66.5413C432.06 65.899 431.538 65.3733 430.893 65.3733Z" fill="#F2F2F2"/>
<path d="M430.884 67.0869L430.123 66.3224L430.339 66.1064L430.884 66.6493L431.427 66.1064L431.645 66.3224L430.884 67.0869Z" fill="#F2F2F2"/>
<path d="M364.935 67.8743L363.605 66.5414L364.935 65.2085L365.153 65.4273L364.04 66.5414L365.153 67.6554L364.935 67.8743Z" fill="#F2F2F2"/>
<path d="M367.542 67.8714L367.323 67.6554L368.437 66.5414L367.323 65.4273L367.542 65.2085L368.874 66.5414L367.542 67.8714Z" fill="#F2F2F2"/>
<path d="M424.014 68.474H376.309C375.244 68.474 374.378 67.6072 374.378 66.5414C374.378 65.4757 375.244 64.6089 376.309 64.6089H424.014C425.079 64.6089 425.945 65.4757 425.945 66.5414C425.945 67.6072 425.079 68.474 424.014 68.474ZM376.309 64.9187C375.415 64.9187 374.687 65.6462 374.687 66.5414C374.687 67.4367 375.415 68.1642 376.309 68.1642H424.014C424.909 68.1642 425.636 67.4367 425.636 66.5414C425.636 65.6462 424.909 64.9187 424.014 64.9187H376.309Z" fill="#F2F2F2"/>
<path d="M435.409 65.4473H435.099V67.6356H435.409V65.4473Z" fill="#F2F2F2"/>
<path d="M436.348 66.3882H434.162V66.698H436.348V66.3882Z" fill="#F2F2F2"/>
<path d="M439.428 66.4191H438.232V65.2227H439.428V66.4191ZM438.539 66.1094H439.118V65.5296H438.539V66.1094Z" fill="#F2F2F2"/>
<path d="M439.428 67.86H438.232V66.6636H439.428V67.86ZM438.539 67.5503H439.118V66.9705H438.539V67.5503Z" fill="#F2F2F2"/>
<path d="M440.879 66.4191H439.683V65.2227H440.879V66.4191ZM439.99 66.1094H440.569V65.5296H439.99V66.1094Z" fill="#F2F2F2"/>
<path d="M440.879 67.86H439.683V66.6636H440.879V67.86ZM439.99 67.5503H440.569V66.9705H439.99V67.5503Z" fill="#F2F2F2"/>
<path d="M431.595 100.546C403.815 100.546 354.655 100.49 354.655 100.427C354.655 100.364 377.167 100.308 404.947 100.308" fill="#00A0FF"/>
<path d="M431.595 93.9962C403.815 93.9962 354.655 93.9398 354.655 93.877C354.655 93.8143 377.167 93.7578 404.947 93.7578" fill="#00A0FF"/>
<path d="M431.595 87.4523C403.815 87.4523 354.655 87.3958 354.655 87.3331C354.655 87.2703 377.167 87.2139 404.947 87.2139" fill="#00A0FF"/>
<path d="M404.947 80.9088C377.167 80.9088 354.655 80.8524 354.655 80.7896C354.655 80.7269 403.815 80.6704 431.595 80.6704" fill="#00A0FF"/>
<path d="M432.801 110.226C419.677 110.233 401.559 110.245 381.544 110.264C371.973 110.264 362.827 110.264 354.505 110.258H354.355V110.145C354.38 100.094 354.397 91.5304 354.413 85.47C354.43 82.4523 354.447 80.0557 354.455 78.3994C354.463 77.5838 354.471 76.9565 354.48 76.5173C354.48 76.3103 354.488 76.1534 354.488 76.0342C354.488 75.9276 354.496 75.8711 354.496 75.8711C354.496 75.8711 354.505 75.9276 354.505 76.0342C354.505 76.1534 354.505 76.3103 354.513 76.5173C354.513 76.9502 354.53 77.5838 354.538 78.3994C354.546 80.0494 354.563 82.446 354.58 85.47C354.596 91.5304 354.613 100.094 354.638 110.145L354.488 110.032C362.81 110.032 371.948 110.032 381.527 110.026C401.534 110.038 419.652 110.051 432.785 110.063" fill="#FB9218"/>
<path d="M398.256 116.494H394.577V119.267H398.256V116.494Z" fill="#00A0FF"/>
<path d="M422.565 116.582H418.886V119.355H422.565V116.582Z" fill="#7DD8C3"/>
<path d="M410.256 117.874C410.256 117.943 408.018 117.993 405.246 117.993C402.475 117.993 400.236 117.937 400.236 117.874C400.236 117.811 402.475 117.755 405.246 117.755C408.018 117.755 410.256 117.811 410.256 117.874Z" fill="#FB9218"/>
<path d="M434 117.874C434 117.943 431.761 117.993 428.99 117.993C426.219 117.993 423.98 117.937 423.98 117.874C423.98 117.811 426.219 117.755 428.99 117.755C431.761 117.755 434 117.811 434 117.874Z" fill="#FB9218"/>
<path d="M356 110L362.06 96.734L370.873 100.436L376.199 110L383.543 100.436L392.174 105.681L399.519 96.734L411.27 100.436L419.533 87.1702L430 81" stroke="#52BFFF"/>
<circle cx="362.5" cy="97.5" r="2.245" fill="#7DD8C3" stroke="white" stroke-width="0.51"/>
<circle cx="355.5" cy="109.5" r="2.245" fill="#7DD8C3" stroke="white" stroke-width="0.51"/>
<circle cx="376.5" cy="109.5" r="2.245" fill="#7DD8C3" stroke="white" stroke-width="0.51"/>
<circle cx="392.5" cy="105.5" r="2.245" fill="#7DD8C3" stroke="white" stroke-width="0.51"/>
<circle cx="411.5" cy="100.5" r="2.245" fill="#7DD8C3" stroke="white" stroke-width="0.51"/>
<circle cx="430.5" cy="80.5" r="2.245" fill="#7DD8C3" stroke="white" stroke-width="0.51"/>
<circle cx="370.5" cy="100.5" r="2.245" fill="#7DD8C3" stroke="white" stroke-width="0.51"/>
<circle cx="384.5" cy="100.5" r="2.245" fill="#7DD8C3" stroke="white" stroke-width="0.51"/>
<circle cx="400.5" cy="97.5" r="2.245" fill="#7DD8C3" stroke="white" stroke-width="0.51"/>
<circle cx="419.5" cy="87.5" r="2.245" fill="#7DD8C3" stroke="white" stroke-width="0.51"/>
</g>
<path d="M332.323 229.199C332.174 229.199 332.029 229.155 331.906 229.073C331.783 228.99 331.687 228.873 331.63 228.736C331.573 228.599 331.558 228.448 331.587 228.303C331.616 228.157 331.687 228.024 331.792 227.919L333.887 225.824L331.886 223.825C331.749 223.684 331.674 223.494 331.676 223.298C331.677 223.101 331.756 222.913 331.895 222.774C332.034 222.635 332.222 222.556 332.419 222.554C332.616 222.553 332.805 222.628 332.947 222.765L335.478 225.296V226.356L332.853 228.981C332.712 229.121 332.521 229.2 332.323 229.199Z" fill="white"/>
<path d="M331.901 229.199C331.702 229.199 331.511 229.12 331.371 228.979L328.839 226.45V225.387L331.464 222.762C331.534 222.693 331.617 222.637 331.708 222.6C331.799 222.562 331.897 222.543 331.995 222.543C332.094 222.543 332.192 222.563 332.283 222.6C332.374 222.638 332.456 222.694 332.526 222.763C332.596 222.833 332.651 222.916 332.688 223.007C332.726 223.098 332.745 223.196 332.745 223.294C332.745 223.393 332.726 223.491 332.688 223.582C332.65 223.673 332.595 223.755 332.525 223.825L330.43 225.918L332.431 227.919C332.536 228.023 332.607 228.157 332.636 228.303C332.665 228.448 332.65 228.599 332.594 228.736C332.537 228.873 332.441 228.99 332.317 229.072C332.194 229.155 332.049 229.199 331.901 229.199Z" fill="white"/>
<path d="M345.751 231.4C345.498 231.4 345.249 231.335 345.028 231.212L337.809 227.228C337.575 227.1 337.38 226.911 337.244 226.681C337.108 226.452 337.035 226.19 337.034 225.923C337.032 225.656 337.102 225.394 337.236 225.163C337.37 224.932 337.563 224.741 337.795 224.609L345.014 220.531C345.361 220.335 345.771 220.285 346.154 220.392C346.344 220.444 346.521 220.534 346.676 220.655C346.832 220.777 346.961 220.928 347.058 221.099C347.155 221.271 347.217 221.46 347.241 221.655C347.265 221.851 347.25 222.049 347.198 222.239C347.145 222.429 347.055 222.606 346.934 222.761C346.812 222.917 346.662 223.046 346.49 223.143L341.61 225.902L346.477 228.589C346.769 228.75 346.998 229.003 347.13 229.309C347.262 229.614 347.288 229.955 347.205 230.277C347.122 230.6 346.934 230.885 346.67 231.089C346.407 231.292 346.083 231.403 345.751 231.402V231.4Z" fill="white"/>
<path d="M318.566 231.4C318.235 231.4 317.913 231.29 317.651 231.088C317.389 230.886 317.2 230.603 317.116 230.283C317.031 229.963 317.055 229.624 317.183 229.319C317.312 229.013 317.537 228.759 317.825 228.596L322.705 225.839L317.84 223.15C317.662 223.058 317.504 222.931 317.375 222.777C317.247 222.623 317.15 222.445 317.092 222.253C317.033 222.061 317.014 221.859 317.035 221.66C317.056 221.46 317.117 221.267 317.214 221.091C317.311 220.916 317.442 220.761 317.6 220.637C317.758 220.513 317.939 220.422 318.132 220.369C318.326 220.316 318.528 220.303 318.727 220.33C318.926 220.357 319.117 220.423 319.29 220.525L326.509 224.509C326.742 224.638 326.937 224.827 327.073 225.057C327.21 225.286 327.282 225.548 327.283 225.815C327.285 226.082 327.215 226.344 327.081 226.575C326.947 226.806 326.754 226.997 326.521 227.128L319.303 231.208C319.078 231.335 318.824 231.401 318.566 231.4Z" fill="white"/>
<path d="M334.191 240.404C334.064 240.185 333.996 239.937 333.991 239.685L333.817 231.441C333.811 231.174 333.877 230.911 334.007 230.678C334.137 230.445 334.327 230.251 334.557 230.116C334.788 229.981 335.05 229.91 335.317 229.91C335.583 229.91 335.846 229.981 336.076 230.116L343.225 234.316C343.568 234.518 343.817 234.847 343.917 235.232C344.017 235.617 343.96 236.026 343.758 236.369C343.557 236.712 343.227 236.961 342.842 237.061C342.457 237.161 342.048 237.104 341.705 236.903L336.875 234.063L336.993 239.621C337 239.954 336.897 240.28 336.698 240.548C336.5 240.815 336.218 241.009 335.897 241.099C335.577 241.189 335.235 241.169 334.927 241.043C334.618 240.917 334.36 240.692 334.194 240.404H334.191Z" fill="white"/>
<path d="M320.555 216.887C320.388 216.6 320.321 216.266 320.364 215.937C320.407 215.608 320.558 215.303 320.793 215.069C321.028 214.835 321.334 214.685 321.663 214.644C321.993 214.602 322.326 214.671 322.612 214.839L327.445 217.675L327.327 212.118C327.323 211.921 327.358 211.725 327.429 211.541C327.501 211.358 327.608 211.19 327.744 211.048C327.881 210.905 328.044 210.791 328.224 210.712C328.404 210.633 328.599 210.59 328.796 210.586C329.193 210.577 329.578 210.727 329.866 211.003C330.153 211.278 330.319 211.656 330.327 212.054L330.5 220.3C330.505 220.567 330.44 220.83 330.309 221.063C330.179 221.296 329.989 221.49 329.759 221.625C329.529 221.76 329.267 221.831 329 221.831C328.733 221.831 328.471 221.76 328.241 221.625L321.092 217.425C320.87 217.295 320.685 217.109 320.555 216.887Z" fill="white"/>
<path d="M320.39 234.637C320.52 234.419 320.704 234.239 320.924 234.112L328.07 229.998C328.301 229.865 328.564 229.795 328.831 229.797C329.098 229.799 329.36 229.872 329.59 230.009C329.819 230.146 330.008 230.342 330.136 230.576C330.264 230.811 330.328 231.075 330.32 231.342L330.072 239.63C330.066 239.827 330.022 240.021 329.941 240.2C329.86 240.38 329.745 240.542 329.601 240.677C329.458 240.812 329.289 240.918 329.105 240.988C328.921 241.058 328.725 241.091 328.528 241.085C328.331 241.079 328.137 241.035 327.957 240.954C327.777 240.873 327.615 240.758 327.48 240.614C327.345 240.471 327.239 240.302 327.169 240.118C327.099 239.934 327.066 239.737 327.072 239.54L327.24 233.938L322.422 236.713C322.133 236.879 321.798 236.944 321.468 236.899C321.138 236.853 320.833 236.699 320.601 236.461C320.368 236.224 320.221 235.915 320.183 235.584C320.145 235.254 320.218 234.92 320.391 234.635L320.39 234.637Z" fill="white"/>
<path d="M334.462 211.375C334.634 211.091 334.895 210.872 335.204 210.752C335.514 210.632 335.854 210.618 336.173 210.712C336.491 210.807 336.769 211.004 336.963 211.273C337.157 211.542 337.256 211.868 337.245 212.2L337.078 217.803L341.896 215.028C342.241 214.829 342.651 214.775 343.035 214.878C343.42 214.981 343.747 215.233 343.946 215.578C344.145 215.922 344.199 216.332 344.096 216.717C343.993 217.101 343.741 217.429 343.396 217.628L336.25 221.742C336.019 221.875 335.756 221.945 335.489 221.943C335.221 221.941 334.959 221.868 334.73 221.73C334.501 221.593 334.312 221.397 334.184 221.163C334.055 220.928 333.992 220.664 334 220.397L334.25 212.109C334.256 211.85 334.329 211.597 334.462 211.375Z" fill="white"/>
<path d="M208.21 213.731L205.702 214.986V237.006L208.21 238.259L214.356 225.992L208.21 213.731Z" fill="#8AD1FC"/>
<path d="M221.271 235.093L208.21 238.253V213.731L221.271 216.894L227.443 226.032L221.271 235.093Z" fill="#DFF3FF"/>
<path d="M221.271 235.093L234.332 238.253L236.588 226.306L234.332 213.731L221.271 216.894V235.093Z" fill="#8AD1FC"/>
<path d="M234.333 213.731L236.842 214.986V237.006L234.333 238.259V213.731Z" fill="#DFF3FF"/>
<path d="M215.576 230.053L221.271 230.778L225.786 226.032L221.271 221.285L215.576 221.999V230.053Z" fill="#8AD1FC"/>
<path d="M226.967 218.104L221.271 219.143L215.576 218.104L221.271 207.202L226.967 218.104Z" fill="#71CAFE"/>
<path d="M226.967 233.938L221.271 232.893L215.576 233.938L221.271 244.84L226.967 233.938Z" fill="#A0DCFF"/>
<path d="M226.968 218.104L221.271 216.695V207.202L226.968 210.049V218.104Z" fill="#DFF3FF"/>
<path d="M215.576 218.104L221.271 216.695V207.202L215.576 210.049V218.104Z" fill="#8AD1FC"/>
<path d="M221.271 244.84L226.967 241.993V233.938L221.271 235.348V244.84Z" fill="#DFF3FF"/>
<path d="M221.271 244.84L215.575 241.993V233.938L221.271 235.348V244.84Z" fill="#8AD1FC"/>
<path d="M226.968 230.053L221.271 230.778V221.285L226.968 221.999V230.053Z" fill="#DFF3FF"/>
<path d="M292.559 233.583V228L291.942 227.667L278 235.583L264.759 228.083V224.817L278 232.258L292.559 224.067V218.558L291.942 218.217L278 226.142L265.3 218.925L278 211.75L288.25 217.583L289.017 217.15V216.508L278 210.242L263.442 218.5V219.333L278 227.492L291.242 219.992V223.267L278 230.817L264.059 222.892L263.442 223.233V228.825L278 237.017L291.242 229.558V232.825L278 240.35L264.059 232.417L263.442 232.758V233.592L278 241.783L292.559 233.583Z" fill="white"/>
<path d="M272.094 259.531C271.779 259.531 271.491 259.454 271.23 259.301C270.97 259.145 270.762 258.936 270.605 258.676C270.452 258.415 270.375 258.128 270.375 257.812C270.375 257.495 270.452 257.207 270.605 256.949C270.762 256.689 270.97 256.482 271.23 256.328C271.491 256.172 271.779 256.094 272.094 256.094C272.411 256.094 272.699 256.172 272.957 256.328C273.217 256.482 273.424 256.689 273.578 256.949C273.734 257.207 273.812 257.495 273.812 257.812C273.812 258.128 273.734 258.415 273.578 258.676C273.424 258.936 273.217 259.145 272.957 259.301C272.699 259.454 272.411 259.531 272.094 259.531ZM278.281 259.531C277.966 259.531 277.678 259.454 277.418 259.301C277.158 259.145 276.949 258.936 276.793 258.676C276.639 258.415 276.562 258.128 276.562 257.812C276.562 257.495 276.639 257.207 276.793 256.949C276.949 256.689 277.158 256.482 277.418 256.328C277.678 256.172 277.966 256.094 278.281 256.094C278.599 256.094 278.887 256.172 279.145 256.328C279.405 256.482 279.612 256.689 279.766 256.949C279.922 257.207 280 257.495 280 257.812C280 258.128 279.922 258.415 279.766 258.676C279.612 258.936 279.405 259.145 279.145 259.301C278.887 259.454 278.599 259.531 278.281 259.531ZM284.469 259.531C284.154 259.531 283.866 259.454 283.605 259.301C283.345 259.145 283.137 258.936 282.98 258.676C282.827 258.415 282.75 258.128 282.75 257.812C282.75 257.495 282.827 257.207 282.98 256.949C283.137 256.689 283.345 256.482 283.605 256.328C283.866 256.172 284.154 256.094 284.469 256.094C284.786 256.094 285.074 256.172 285.332 256.328C285.592 256.482 285.799 256.689 285.953 256.949C286.109 257.207 286.188 257.495 286.188 257.812C286.188 258.128 286.109 258.415 285.953 258.676C285.799 258.936 285.592 259.145 285.332 259.301C285.074 259.454 284.786 259.531 284.469 259.531Z" fill="white"/>
<defs>
<filter id="filter0_d_47_3807" x="403" y="187.027" width="128.662" height="82.9727" filterUnits="userSpaceOnUse" color-interpolation-filters="sRGB">
<feFlood flood-opacity="0" result="BackgroundImageFix"/>
<feColorMatrix in="SourceAlpha" type="matrix" values="0 0 0 0 0 0 0 0 0 0 0 0 0 0 0 0 0 0 127 0" result="hardAlpha"/>
<feOffset dy="4"/>
<feGaussianBlur stdDeviation="7"/>
<feComposite in2="hardAlpha" operator="out"/>
<feColorMatrix type="matrix" values="0 0 0 0 0.0431373 0 0 0 0 0.34902 0 0 0 0 0.807843 0 0 0 0.1 0"/>
<feBlend mode="normal" in2="BackgroundImageFix" result="effect1_dropShadow_47_3807"/>
<feBlend mode="normal" in="SourceGraphic" in2="effect1_dropShadow_47_3807" result="shape"/>
</filter>
<filter id="filter1_d_47_3807" x="89" y="57.0273" width="128.662" height="82.9727" filterUnits="userSpaceOnUse" color-interpolation-filters="sRGB">
<feFlood flood-opacity="0" result="BackgroundImageFix"/>
<feColorMatrix in="SourceAlpha" type="matrix" values="0 0 0 0 0 0 0 0 0 0 0 0 0 0 0 0 0 0 127 0" result="hardAlpha"/>
<feOffset dy="4"/>
<feGaussianBlur stdDeviation="7"/>
<feComposite in2="hardAlpha" operator="out"/>
<feColorMatrix type="matrix" values="0 0 0 0 0.0431373 0 0 0 0 0.34902 0 0 0 0 0.807843 0 0 0 0.1 0"/>
<feBlend mode="normal" in2="BackgroundImageFix" result="effect1_dropShadow_47_3807"/>
<feBlend mode="normal" in="SourceGraphic" in2="effect1_dropShadow_47_3807" result="shape"/>
</filter>
<filter id="filter2_d_47_3807" x="26" y="186.027" width="128.662" height="82.9727" filterUnits="userSpaceOnUse" color-interpolation-filters="sRGB">
<feFlood flood-opacity="0" result="BackgroundImageFix"/>
<feColorMatrix in="SourceAlpha" type="matrix" values="0 0 0 0 0 0 0 0 0 0 0 0 0 0 0 0 0 0 127 0" result="hardAlpha"/>
<feOffset dy="4"/>
<feGaussianBlur stdDeviation="7"/>
<feComposite in2="hardAlpha" operator="out"/>
<feColorMatrix type="matrix" values="0 0 0 0 0.0431373 0 0 0 0 0.34902 0 0 0 0 0.807843 0 0 0 0.1 0"/>
<feBlend mode="normal" in2="BackgroundImageFix" result="effect1_dropShadow_47_3807"/>
<feBlend mode="normal" in="SourceGraphic" in2="effect1_dropShadow_47_3807" result="shape"/>
</filter>
<filter id="filter3_d_47_3807" x="331" y="57.0273" width="128.662" height="82.9727" filterUnits="userSpaceOnUse" color-interpolation-filters="sRGB">
<feFlood flood-opacity="0" result="BackgroundImageFix"/>
<feColorMatrix in="SourceAlpha" type="matrix" values="0 0 0 0 0 0 0 0 0 0 0 0 0 0 0 0 0 0 127 0" result="hardAlpha"/>
<feOffset dy="4"/>
<feGaussianBlur stdDeviation="7"/>
<feComposite in2="hardAlpha" operator="out"/>
<feColorMatrix type="matrix" values="0 0 0 0 0.0431373 0 0 0 0 0.34902 0 0 0 0 0.807843 0 0 0 0.1 0"/>
<feBlend mode="normal" in2="BackgroundImageFix" result="effect1_dropShadow_47_3807"/>
<feBlend mode="normal" in="SourceGraphic" in2="effect1_dropShadow_47_3807" result="shape"/>
</filter>
<linearGradient id="paint0_linear_47_3807" x1="220.417" y1="95" x2="91.3556" y2="273.824" gradientUnits="userSpaceOnUse">
<stop stop-color="#00A0FF"/>
<stop offset="1" stop-color="#9747FF"/>
</linearGradient>
<linearGradient id="paint1_linear_47_3807" x1="458.417" y1="95" x2="329.356" y2="273.824" gradientUnits="userSpaceOnUse">
<stop stop-color="#00A0FF"/>
<stop offset="1" stop-color="#9747FF"/>
</linearGradient>
<linearGradient id="paint2_linear_47_3807" x1="156" y1="286.157" x2="396.597" y2="286.157" gradientUnits="userSpaceOnUse">
<stop stop-color="#9C9C9C"/>
<stop offset="0.04" stop-color="#3C3C3B"/>
<stop offset="0.15" stop-color="#868686"/>
<stop offset="0.16" stop-color="#878787"/>
<stop offset="0.35" stop-color="#969696"/>
<stop offset="0.51" stop-color="#9C9C9C"/>
<stop offset="0.91" stop-color="#9C9C9C"/>
<stop offset="0.92" stop-color="#707070"/>
<stop offset="0.94" stop-color="#4A4A49"/>
<stop offset="0.95" stop-color="#3C3C3B"/>
<stop offset="1" stop-color="#9C9C9C"/>
</linearGradient>
<linearGradient id="paint3_linear_47_3807" x1="276.301" y1="292.207" x2="276.301" y2="287.807" gradientUnits="userSpaceOnUse">
<stop stop-color="#1D1D1B"/>
<stop offset="0.3" stop-color="#20201E"/>
<stop offset="0.53" stop-color="#292928"/>
<stop offset="0.75" stop-color="#393938"/>
<stop offset="0.95" stop-color="#505050"/>
<stop offset="1" stop-color="#575757"/>
</linearGradient>
<linearGradient id="paint4_linear_47_3807" x1="254.926" y1="286.154" x2="303.782" y2="286.154" gradientUnits="userSpaceOnUse">
<stop stop-color="#3C3C3B"/>
<stop offset="0.07" stop-color="#565655"/>
<stop offset="0.19" stop-color="#7D7D7D"/>
<stop offset="0.31" stop-color="#9C9C9C"/>
<stop offset="0.42" stop-color="#B3B3B2"/>
<stop offset="0.53" stop-color="#C0C0C0"/>
<stop offset="0.63" stop-color="#C5C5C5"/>
<stop offset="0.68" stop-color="#C5C5C5"/>
<stop offset="1" stop-color="#C5C5C5"/>
</linearGradient>
<linearGradient id="paint5_linear_47_3807" x1="169.435" y1="286.707" x2="179.209" y2="286.707" gradientUnits="userSpaceOnUse">
<stop stop-color="#1D1D1B"/>
<stop offset="0.3" stop-color="#20201E"/>
<stop offset="0.53" stop-color="#292928"/>
<stop offset="0.75" stop-color="#393938"/>
<stop offset="0.95" stop-color="#505050"/>
<stop offset="1" stop-color="#575757"/>
</linearGradient>
<linearGradient id="paint6_linear_47_3807" x1="280.359" y1="171.342" x2="279.342" y2="174.642" gradientUnits="userSpaceOnUse">
<stop stop-color="#575757"/>
<stop offset="0.33" stop-color="#5A5A5A"/>
<stop offset="0.59" stop-color="#646464"/>
<stop offset="0.83" stop-color="#747474"/>
<stop offset="1" stop-color="#868686"/>
</linearGradient>
<linearGradient id="paint7_linear_47_3807" x1="279.857" y1="171.29" x2="279.01" y2="173.349" gradientUnits="userSpaceOnUse">
<stop stop-color="#575757"/>
<stop offset="0.33" stop-color="#5A5A5A"/>
<stop offset="0.59" stop-color="#646464"/>
<stop offset="0.83" stop-color="#747474"/>
<stop offset="1" stop-color="#868686"/>
</linearGradient>
<linearGradient id="paint8_linear_47_3807" x1="230.189" y1="155.835" x2="305.064" y2="304.21" gradientUnits="userSpaceOnUse">
<stop stop-color="#176BFF"/>
<stop offset="0.47" stop-color="#00A0FF"/>
</linearGradient>
<linearGradient id="paint9_linear_47_3807" x1="374.957" y1="308.817" x2="304.121" y2="154.331" gradientUnits="userSpaceOnUse">
<stop stop-color="white" stop-opacity="0"/>
<stop offset="1" stop-color="white"/>
</linearGradient>
</defs>
</svg>
